<?xml version="1.0"?>

<!-- Created with Inkscape (http://www.inkscape.org/) -->
<svg xmlns:dc="http://purl.org/dc/elements/1.1/" xmlns:cc="http://creativecommons.org/ns#" xmlns:rdf="http://www.w3.org/1999/02/22-rdf-syntax-ns#" xmlns:svg="http://www.w3.org/2000/svg" xmlns="http://www.w3.org/2000/svg" xmlns:sodipodi="http://sodipodi.sourceforge.net/DTD/sodipodi-0.dtd" xmlns:inkscape="http://www.inkscape.org/namespaces/inkscape" width="256.35001" height="212.84" id="svg2" version="1.1" inkscape:version="0.48.3.1 r9886" sodipodi:docname="juez-patito2.svg" inkscape:export-filename="/home/vg/vitacora/umsa/juez-patito.png" inkscape:export-xdpi="90.050003" inkscape:export-ydpi="90.050003" viewBox="0 0 256.35001 212.84"> <defs id="defs4"></defs> <sodipodi:namedview id="base" pagecolor="#ffffff" bordercolor="#666666" borderopacity="1.0" inkscape:pageopacity="0.0" inkscape:pageshadow="2" inkscape:zoom="1.0606602" inkscape:cx="114.50656" inkscape:cy="115.47887" inkscape:document-units="px" inkscape:current-layer="layer1" showgrid="false" fit-margin-top="10" fit-margin-left="10" fit-margin-right="10" fit-margin-bottom="10" inkscape:window-width="1280" inkscape:window-height="957" inkscape:window-x="0" inkscape:window-y="34" inkscape:window-maximized="1"></sodipodi:namedview> <metadata id="metadata7"> <rdf:rdf> <cc:work rdf:about=""> <dc:format>image/svg+xml</dc:format> <dc:type rdf:resource="http://purl.org/dc/dcmitype/StillImage"></dc:type> <dc:title></dc:title> </cc:work> </rdf:rdf> </metadata> <g inkscape:label="Layer 1" inkscape:groupmode="layer" id="layer1" transform="translate(-148.13988,-83.539322)"> <g transform="matrix(-0.95121108,0.30854088,0.30854088,0.95121108,830.83319,-104.41397)" id="g3784" style="stroke-linecap:round;stroke-linejoin:round"> <path style="fill:#808080;fill-opacity:1;stroke:#000000;stroke-width:5;stroke-linecap:round;stroke-linejoin:round;stroke-miterlimit:4;stroke-opacity:1;stroke-dasharray:none" d="m 531.33333,115.02885 c 15.186,-20.850432 -11.12247,-50.35283 16.17226,-81.577317 24.98237,-28.579197 49.57807,5.998409 49.57807,5.998409 -45.14182,7.333333 31.16949,94.245568 -31.08366,83.578908 -46.72744,-8.00643 -34.66667,-8 -34.66667,-8 z" id="path3786" inkscape:connector-curvature="0" sodipodi:nodetypes="cscsc"></path> <path sodipodi:nodetypes="ssszs" inkscape:connector-curvature="0" id="path3788" d="m 553.33336,113.02908 c 0,7.36381 -5.96955,13.33336 -13.33337,13.33336 -7.36381,0 -13.33336,-5.96955 -13.33336,-13.33336 0,-7.32671 5.89306,-13.306897 13.28582,-13.333187 7.39276,-0.0263 13.38091,5.969377 13.38091,13.333187 z" style="color:#000000;fill:#b3b3b3;fill-opacity:1;fill-rule:nonzero;stroke:#000000;stroke-width:5;stroke-linecap:round;stroke-linejoin:round;stroke-miterlimit:4;stroke-opacity:1;stroke-dashoffset:0;marker:none;visibility:visible;display:inline;overflow:visible;enable-background:accumulate"></path> <path style="color:#000000;fill:#b3b3b3;fill-opacity:1;fill-rule:nonzero;stroke:#000000;stroke-width:5;stroke-linecap:round;stroke-linejoin:round;stroke-miterlimit:4;stroke-opacity:1;stroke-dashoffset:0;marker:none;visibility:visible;display:inline;overflow:visible;enable-background:accumulate" d="m 564.66669,113.02908 c 0,7.36381 -5.96955,13.33336 -13.33337,13.33336 -7.36381,0 -13.33336,-5.96955 -13.33336,-13.33336 0,-7.32671 5.89306,-13.306897 13.28582,-13.333187 7.39276,-0.0263 13.38091,5.969377 13.38091,13.333187 z" id="path3790" inkscape:connector-curvature="0" sodipodi:nodetypes="ssszs"></path> <path sodipodi:nodetypes="ssszs" inkscape:connector-curvature="0" id="path3792" d="m 576.66669,113.02908 c 0,7.36381 -5.96955,13.33336 -13.33337,13.33336 -7.36381,0 -13.33336,-5.96955 -13.33336,-13.33336 0,-7.32671 5.89306,-13.306897 13.28582,-13.333187 7.39276,-0.0263 13.38091,5.969377 13.38091,13.333187 z" style="color:#000000;fill:#b3b3b3;fill-opacity:1;fill-rule:nonzero;stroke:#000000;stroke-width:5;stroke-linecap:round;stroke-linejoin:round;stroke-miterlimit:4;stroke-opacity:1;stroke-dashoffset:0;marker:none;visibility:visible;display:inline;overflow:visible;enable-background:accumulate"></path> <path style="color:#000000;fill:#b3b3b3;fill-opacity:1;fill-rule:nonzero;stroke:#000000;stroke-width:5;stroke-linecap:round;stroke-linejoin:round;stroke-miterlimit:4;stroke-opacity:1;stroke-dashoffset:0;marker:none;visibility:visible;display:inline;overflow:visible;enable-background:accumulate" d="m 590.00002,113.02908 c 0,7.36381 -5.96955,13.33336 -13.33337,13.33336 -7.36381,0 -13.33336,-5.96955 -13.33336,-13.33336 0,-7.32671 5.89306,-13.306897 13.28582,-13.333187 7.39276,-0.0263 13.38091,5.969377 13.38091,13.333187 z" id="path3794" inkscape:connector-curvature="0" sodipodi:nodetypes="ssszs"></path> </g> <path style="fill:#d48426;fill-opacity:1;stroke:#000000;stroke-width:5;stroke-linecap:round;stroke-linejoin:round;stroke-miterlimit:4;stroke-opacity:1;stroke-dasharray:none" d="m 398.43015,156.04522 c -13.79743,12.35319 -31.52105,-3.2456 -42.34311,7.2654 -0.88739,12.5592 -10.7582,4.07314 -0.94274,13.97619 -4.15607,23.75654 -0.6176,15.0304 35.95212,20.66562 -2.91918,-8.73688 -23.81622,-16.1631 -33.51123,-18.9514 10.21093,-11.14765 42.48661,1.91603 40.84496,-22.95581 z" id="path2990" inkscape:connector-curvature="0" sodipodi:nodetypes="cccccc" inkscape:transform-center-x="-15.404349" inkscape:transform-center-y="0.18806772"></path> <path style="color:#000000;fill:#f4ef4e;fill-opacity:1;fill-rule:nonzero;stroke:#000000;stroke-width:5;stroke-linecap:round;stroke-linejoin:round;stroke-miterlimit:4;stroke-opacity:1;stroke-dashoffset:0;marker:none;visibility:visible;display:inline;overflow:visible;enable-background:accumulate" d="m 307.125,107.6875 c -56.82779,0 -59.11458,26.79555 -59.11458,58.66667 0,10.87114 4.31705,20.38726 9.52083,29.08333 -63.93899,-19.67357 -69.58322,48.01586 -89.63542,-20.71875 -24.07394,54.27786 15.25083,111.21197 66.59375,109.10417 30.84074,-1.26612 75.03896,9.15788 88.63542,-57.16667 0.38721,-1.88883 0.57234,-3.6564 0.59375,-5.3125 24.05773,-7.06792 41.625,-29.31117 41.625,-55.65625 0,-32.03253 -26.06011,-58 -58.21875,-58 z" id="path2988" inkscape:connector-curvature="0" sodipodi:nodetypes="ssccsscss"></path> <path style="color:#000000;fill:#000000;fill-opacity:1;fill-rule:nonzero;stroke:none;stroke-width:5;marker:none;visibility:visible;display:inline;overflow:visible;enable-background:accumulate" d="m 333,150.69552 c 4.13591,0.26473 8.52263,3.44276 9,9 0.42541,4.95233 -4.02944,9.00001 -9,9.00001 -4.97056,0 -9,-4.02944 -9,-9.00001 0,-4.94552 3.99042,-8.9645 8.93581,-8.99977" id="path3764" inkscape:connector-curvature="0" sodipodi:nodetypes="csssc"></path> <g id="g3777" transform="translate(-272.66666,65.333333)" style="stroke-linecap:round;stroke-linejoin:round"> <path sodipodi:nodetypes="cscsc" inkscape:connector-curvature="0" id="path3775" d="M 531.33333,115.02885 C 546,93.028849 501.33333,54.362183 534,35.028849 c 32.66667,-19.333333 54,6.666667 54,6.666667 -45.14182,7.333333 40.25315,91.999994 -22,81.333334 -46.72744,-8.00643 -34.66667,-8 -34.66667,-8 z" style="fill:#808080;fill-opacity:1;stroke:#000000;stroke-width:5;stroke-linecap:round;stroke-linejoin:round;stroke-miterlimit:4;stroke-opacity:1;stroke-dasharray:none"></path> <path sodipodi:nodetypes="ssszs" inkscape:connector-curvature="0" id="path3905" d="m 554.66669,113.02908 c 0,7.36381 -5.96955,13.33336 -13.33337,13.33336 -7.36381,0 -13.33336,-5.96955 -13.33336,-13.33336 0,-7.32671 5.89306,-13.306897 13.28582,-13.333187 7.39276,-0.0263 13.38091,5.969377 13.38091,13.333187 z" style="color:#000000;fill:#b3b3b3;fill-opacity:1;fill-rule:nonzero;stroke:#000000;stroke-width:5;stroke-linecap:round;stroke-linejoin:round;stroke-miterlimit:4;stroke-opacity:1;stroke-dashoffset:0;marker:none;visibility:visible;display:inline;overflow:visible;enable-background:accumulate"></path> <path style="color:#000000;fill:#b3b3b3;fill-opacity:1;fill-rule:nonzero;stroke:#000000;stroke-width:5;stroke-linecap:round;stroke-linejoin:round;stroke-miterlimit:4;stroke-opacity:1;stroke-dashoffset:0;marker:none;visibility:visible;display:inline;overflow:visible;enable-background:accumulate" d="m 554.66669,113.02908 c 0,7.36381 -5.96955,13.33336 -13.33337,13.33336 -7.36381,0 -13.33336,-5.96955 -13.33336,-13.33336 0,-7.32671 5.89306,-13.306897 13.28582,-13.333187 7.39276,-0.0263 13.38091,5.969377 13.38091,13.333187 z" id="path3911" inkscape:connector-curvature="0" sodipodi:nodetypes="ssszs"></path> <path style="color:#000000;fill:#b3b3b3;fill-opacity:1;fill-rule:nonzero;stroke:#000000;stroke-width:5;stroke-linecap:round;stroke-linejoin:round;stroke-miterlimit:4;stroke-opacity:1;stroke-dashoffset:0;marker:none;visibility:visible;display:inline;overflow:visible;enable-background:accumulate" d="m 563.50002,113.02908 c 0,7.36381 -5.96955,13.33336 -13.33337,13.33336 -7.36381,0 -13.33336,-5.96955 -13.33336,-13.33336 0,-7.32671 5.89306,-13.306897 13.28582,-13.333187 7.39276,-0.0263 13.38091,5.969377 13.38091,13.333187 z" id="path3767" inkscape:connector-curvature="0" sodipodi:nodetypes="ssszs"></path> <path sodipodi:nodetypes="ssszs" inkscape:connector-curvature="0" id="path3769" d="m 572.33336,113.02908 c 0,7.36381 -5.96955,13.33336 -13.33337,13.33336 -7.36381,0 -13.33336,-5.96955 -13.33336,-13.33336 0,-7.32671 5.89306,-13.306897 13.28582,-13.333187 7.39276,-0.0263 13.38091,5.969377 13.38091,13.333187 z" style="color:#000000;fill:#b3b3b3;fill-opacity:1;fill-rule:nonzero;stroke:#000000;stroke-width:5;stroke-linecap:round;stroke-linejoin:round;stroke-miterlimit:4;stroke-opacity:1;stroke-dashoffset:0;marker:none;visibility:visible;display:inline;overflow:visible;enable-background:accumulate"></path> <path style="color:#000000;fill:#b3b3b3;fill-opacity:1;fill-rule:nonzero;stroke:#000000;stroke-width:5;stroke-linecap:round;stroke-linejoin:round;stroke-miterlimit:4;stroke-opacity:1;stroke-dashoffset:0;marker:none;visibility:visible;display:inline;overflow:visible;enable-background:accumulate" d="m 581.16669,113.02908 c 0,7.36381 -5.96955,13.33336 -13.33337,13.33336 -7.36381,0 -13.33336,-5.96955 -13.33336,-13.33336 0,-7.32671 5.89306,-13.306897 13.28582,-13.333187 7.39276,-0.0263 13.38091,5.969377 13.38091,13.333187 z" id="path3771" inkscape:connector-curvature="0" sodipodi:nodetypes="ssszs"></path> <path sodipodi:nodetypes="ssszs" inkscape:connector-curvature="0" id="path3773" d="m 590.00002,113.02908 c 0,7.36381 -5.96955,13.33336 -13.33337,13.33336 -7.36381,0 -13.33336,-5.96955 -13.33336,-13.33336 0,-7.32671 5.89306,-13.306897 13.28582,-13.333187 7.39276,-0.0263 13.38091,5.969377 13.38091,13.333187 z" style="color:#000000;fill:#b3b3b3;fill-opacity:1;fill-rule:nonzero;stroke:#000000;stroke-width:5;stroke-linecap:round;stroke-linejoin:round;stroke-miterlimit:4;stroke-opacity:1;stroke-dashoffset:0;marker:none;visibility:visible;display:inline;overflow:visible;enable-background:accumulate"></path> </g> <g id="g3849" transform="matrix(0.90559472,-0.42414408,0.42414408,0.90559472,-276.37159,82.030381)" style="stroke:#000000;stroke-linecap:round;stroke-linejoin:round;stroke-opacity:1"> <path sodipodi:nodetypes="ssszs" style="color:#000000;fill:#9e5f35;fill-opacity:1;stroke:#000000;stroke-width:5;stroke-linecap:round;stroke-linejoin:round;stroke-opacity:1;marker:none;visibility:visible;display:inline;overflow:visible;enable-background:accumulate" d="m 417.33333,339.02882 c 0,6.81153 -5.52183,12.33336 -12.33334,12.33336 -6.81152,0 -12.33335,-5.52183 -12.33335,-12.33336 0,-6.7772 5.45107,-12.30885 12.28936,-12.33318 6.8383,-0.0244 12.37733,5.52167 12.37733,12.33318 z" id="path3833" inkscape:connector-curvature="0"></path> <path inkscape:connector-curvature="0" id="path3835" d="m 411.33332,326.69555 c 0,3.49781 -2.83552,6.33333 -6.33332,6.33333 -3.4978,0 -6.33333,-2.83552 -6.33333,-6.33333 0,-3.48017 2.79919,-6.32075 6.31074,-6.33324 3.51155,-0.0125 6.35591,2.83544 6.35591,6.33324 z" style="color:#000000;fill:#9e5f35;fill-opacity:1;stroke:#000000;stroke-width:5;stroke-linecap:round;stroke-linejoin:round;stroke-opacity:1;marker:none;visibility:visible;display:inline;overflow:visible;enable-background:accumulate" sodipodi:nodetypes="ssszs"></path> <path sodipodi:nodetypes="ssszs" style="color:#000000;fill:#9e5f35;fill-opacity:1;stroke:#000000;stroke-width:5;stroke-linecap:round;stroke-linejoin:round;stroke-opacity:1;marker:none;visibility:visible;display:inline;overflow:visible;enable-background:accumulate" d="m 411.33332,319.36222 c 0,3.49781 -2.83552,6.33333 -6.33332,6.33333 -3.4978,0 -6.33333,-2.83552 -6.33333,-6.33333 0,-3.48017 2.79919,-6.32075 6.31074,-6.33324 3.51155,-0.0125 6.35591,2.83544 6.35591,6.33324 z" id="path3839" inkscape:connector-curvature="0"></path> <path inkscape:connector-curvature="0" id="path3841" d="m 411.33332,312.02884 c 0,3.49781 -2.83552,6.33333 -6.33332,6.33333 -3.4978,0 -6.33333,-2.83552 -6.33333,-6.33333 0,-3.48017 2.79919,-6.32075 6.31074,-6.33324 3.51155,-0.0125 6.35591,2.83544 6.35591,6.33324 z" style="color:#000000;fill:#9e5f35;fill-opacity:1;stroke:#000000;stroke-width:5;stroke-linecap:round;stroke-linejoin:round;stroke-opacity:1;marker:none;visibility:visible;display:inline;overflow:visible;enable-background:accumulate" sodipodi:nodetypes="ssszs"></path> <path sodipodi:nodetypes="ssszs" style="color:#000000;fill:#9e5f35;fill-opacity:1;stroke:#000000;stroke-width:5;stroke-linecap:round;stroke-linejoin:round;stroke-opacity:1;marker:none;visibility:visible;display:inline;overflow:visible;enable-background:accumulate" d="m 411.33332,304.69553 c 0,3.49781 -2.83552,6.33333 -6.33332,6.33333 -3.4978,0 -6.33333,-2.83552 -6.33333,-6.33333 0,-3.48017 2.79919,-6.32075 6.31074,-6.33324 3.51155,-0.0125 6.35591,2.83544 6.35591,6.33324 z" id="path3843" inkscape:connector-curvature="0"></path> <rect ry="20" rx="14.343145" y="248.3622" x="370.79492" height="55.333328" width="78.871742" id="rect3845" style="color:#000000;fill:#9e5f35;fill-opacity:1;fill-rule:nonzero;stroke:#000000;stroke-width:5;stroke-linecap:round;stroke-linejoin:round;stroke-miterlimit:4;stroke-opacity:1;stroke-dasharray:none;stroke-dashoffset:0;marker:none;visibility:visible;display:inline;overflow:visible;enable-background:accumulate"></rect> <rect style="color:#000000;fill:#b38464;fill-opacity:1;fill-rule:nonzero;stroke:#000000;stroke-width:5;stroke-linecap:round;stroke-linejoin:round;stroke-miterlimit:4;stroke-opacity:1;stroke-dasharray:none;stroke-dashoffset:0;marker:none;visibility:visible;display:inline;overflow:visible;enable-background:accumulate" id="rect3847" width="31.666666" height="55.333328" x="418" y="248.3622" rx="11" ry="20"></rect> </g> <path style="fill:#f4ef4e;fill-opacity:1;stroke:#000000;stroke-width:5;stroke-linecap:round;stroke-linejoin:round;stroke-miterlimit:4;stroke-opacity:1;stroke-dasharray:none" d="m 270.633,215.51069 c -16.18863,-18.04118 -51.24858,-17.03022 -58.62382,-5.50993 -7.37524,11.52028 12.25431,18.7631 12.25431,18.7631 0,0 -18.90762,-3.30851 -17.15692,9.92619 1.7507,13.23469 24.82119,9.67917 24.82119,9.67917 0,0 -23.24491,6.29872 -10.9486,14.20936 12.29633,7.91064 58.38318,4.19851 57.14367,-24.71934" id="path3831" inkscape:connector-curvature="0"></path> <path style="fill:none;stroke:#000000;stroke-width:5;stroke-linecap:round;stroke-linejoin:round;stroke-miterlimit:4;stroke-opacity:1;stroke-dasharray:none" d="m 329.28339,148.48642 c 2.83865,3.31212 4.90508,7.4809 14.87201,5.31617" id="path3860" inkscape:connector-curvature="0" inkscape:transform-center-x="-0.9898501" inkscape:transform-center-y="-4.8769475" sodipodi:nodetypes="cc"></path> <path inkscape:connector-curvature="0" id="path3858" d="m 335.12132,153.75966 c 1.97654,0 3.57885,1.6023 3.57885,3.57884 0,1.97655 -1.60231,3.57885 -3.57885,3.57885 -1.97654,0 -3.57885,-1.6023 -3.57885,-3.57885 0,-1.96658 1.58679,-3.56473 3.55332,-3.57875" style="color:#000000;fill:#ffffff;fill-opacity:1;fill-rule:nonzero;stroke:none;stroke-width:5;marker:none;visibility:visible;display:inline;overflow:visible;enable-background:accumulate"></path> <g transform="translate(-595.33333,24)" id="g3915"></g> </g>
</svg>